<?xml version="1.0" encoding="UTF-8"?>
<svg id="Layer_1" xmlns="http://www.w3.org/2000/svg" version="1.1" viewBox="0 0 390.017 422">
  <!-- Generator: Adobe Illustrator 29.6.1, SVG Export Plug-In . SVG Version: 2.1.1 Build 9)  -->
  <g id="Layer_5">
    <g>
      <g>
        <circle cx="238.254" cy="307.473" r="23.63"/>
        <path d="M371.028,177.06l-42.19.03c-1.27,0-1.95.82-1.95,1.59,0,.4.18.76.5,1.02.35.28.85.42,1.45.42h1.5c11.39,0,16.58,11.67,16.58,22.52l.02,78.55-.05,3.06c0,1.47-.28,1.56-.29,1.57-.04,0-.4.04-1.44-1.69-5.13-8.38-15.77-26.69-25.16-42.84-8.87-15.26-16.53-28.45-18.59-31.65-15.41-25.12-23.04-32.46-43.92-32.66l-152.23.01c-1.19,0-2.15.97-2.15,2.15,0,1.19.97,2.15,2.15,2.15h21.15v123.01c.02,6.29.06,18.01-10.72,22.6h-10.68c-1.19,0-2.15.96-2.15,2.15s.96,2.15,2.15,2.15h112.19c1.19,0,2.15-.96,2.15-2.15s-.96-2.15-2.15-2.15h-66.41c.16-.04.34-.07.53-.07,12.69,0,19.4-9.11,19.4-26.33l-.01-49.48h.95c10.84,0,22.52,5.19,22.52,16.58v1.5c0,.6.15,1.1.42,1.45.26.32.62.5,1.02.5.77,0,1.59-.68,1.59-1.95l.03-42.19c0-1.87-3.03-1.86-3.03,0v1.85c0,8.64-7.05,17.93-22.54,17.93h-.91l-.02-65.4h16.43c27.69,2.31,48.57,21.6,48.57,44.86v43.9h.01v5.48c0,1.19.96,2.15,2.15,2.15s2.15-.96,2.15-2.15v-47.66l-.01-.03v-1.69c0-2.92-.31-5.85-.92-8.76l67.59,115.72,5.14,8.22c3.42,5.16,8.95,7.17,15.47,7.17h16.74c2.42,0,4.07-.52,5.18-1.64,1.76-1.77,2.06-4.89,2-9.68v-134.54c0-15.49,9.3-22.54,17.93-22.54h1.85c.93,0,1.42-.76,1.42-1.51s-.48-1.53-1.41-1.53Z"/>
        <path d="M240.028,227.64v.21l.07.32c0-.2-.02-.37-.07-.53Z"/>
      </g>
      <path d="M350.548,152.61c-24.5-67.7-89.35-113.19-161.39-113.19-94.61,0-171.58,76.97-171.58,171.58s76.97,171.58,171.58,171.58c41.18,0,80.5-14.3,111.27-40.37l-2.74-4.47c-30.25,26.01-68.6,40.28-108.52,40.28-92.1,0-167.03-74.93-167.03-167.03S97.058,43.97,189.158,43.97c70.12,0,133.26,44.28,157.11,110.19.42,1.17,1.73,1.79,2.91,1.37.57-.21,1.03-.63,1.29-1.18.26-.55.29-1.17.08-1.74Z"/>
    </g>
  </g>
</svg>