<?xml version="1.0" encoding="UTF-8"?>
<svg id="Layer_1" xmlns="http://www.w3.org/2000/svg" version="1.1" viewBox="0 0 150.2 140">
  <!-- Generator: Adobe Illustrator 29.6.1, SVG Export Plug-In . SVG Version: 2.1.1 Build 9)  -->
  <defs>
    <style>
      .st0 {
        fill: #0d181c;
      }
    </style>
  </defs>
  <g>
    <circle class="st0" cx="91.4" cy="106.4" r="8.9" transform="translate(-48.4 95.8) rotate(-45)"/>
    <path class="st0" d="M141.5,57.2h-15.9c-.5,0-.7.3-.7.6s0,.3.2.4c.1,0,.3.2.6.2h.6c4.3,0,6.2,4.4,6.2,8.5v30.8c0,.6-.1.6-.1.6,0,0-.1,0-.5-.6-1.9-3.2-5.9-10.1-9.5-16.2-3.3-5.8-6.2-10.7-7-11.9-5.8-9.5-8.7-12.2-16.6-12.3h-57.4c-.5,0-.8.4-.8.8s.4.8.8.8h8v46.4c0,2.4,0,6.8-4,8.5h-4c-.5,0-.8.4-.8.8s.4.8.8.8h42.3c.4,0,.8-.4.8-.8s-.4-.8-.8-.8h-25c0,0,.1,0,.2,0,4.8,0,7.3-3.4,7.3-9.9v-18.7h.3c4.1,0,8.5,2,8.5,6.2v.6c0,.2,0,.4.2.6,0,.1.2.2.4.2.3,0,.6-.3.6-.7v-15.9c0-.7-1.1-.7-1.1,0v.7c0,3.3-2.7,6.8-8.5,6.8h-.3v-24.7h6.2c10.4.9,18.3,8.1,18.3,16.9v16.5h0v2.1c0,.4.4.8.8.8s.8-.4.8-.8v-18h0v-.7c0-1.1-.1-2.2-.3-3.3l25.5,43.6,1.9,3.1c1.3,1.9,3.4,2.7,5.8,2.7h6.3c.9,0,1.5-.2,1.9-.6.7-.7.8-1.8.8-3.7v-50.7c0-5.8,3.5-8.5,6.8-8.5h.7c.4,0,.5-.3.5-.6s-.2-.6-.5-.6h0Z"/>
    <path class="st0" d="M92.1,76.3h0c0,0,0,.2,0,.2,0,0,0-.1,0-.2Z"/>
  </g>
  <path class="st0" d="M133.8,48C124.5,22.5,100.1,5.3,72.9,5.3S8.2,34.3,8.2,70s29,64.7,64.7,64.7,30.3-5.4,42-15.2l-1-1.7c-11.4,9.8-25.9,15.2-40.9,15.2-34.7,0-63-28.2-63-63S38.2,7,72.9,7s50.2,16.7,59.2,41.5c.2.4.6.7,1.1.5.2,0,.4-.2.5-.4.1-.2.1-.4,0-.7h0Z"/>
</svg>